# xmcd
#
# Track frame offsets:
# 150
# 12417
# 28579
# 44484
# 55664
# 70125
# 79848
# 95060
# 113030
# 131696
# 146887
# 159681
# 174337
# 187420
# 197974
# 208209
#
# Disc length: 2956 seconds
#
# Revision: 1
# Processed by: cddbd v1.5.1PL0 Copyright (c) Steve Scherf et al.
# Submitted via: CedeCatalogueitor 2.6.0.6 http://personales.ya.com/cdcatalogueitor
#
DISCID=f40b8a10
DTITLE=JEANETTE - Solo Lo Mejor
DYEAR=2004
DGENRE=
TTITLE0=Te Esperaré
TTITLE1=Escucha
TTITLE2=Callate Niña
TTITLE3=Amanecer
TTITLE4=Soy Rebelde
TTITLE5=Me Olvidaras
TTITLE6=Oye Papá, Oye Mamá
TTITLE7=Estoy Triste
TTITLE8=Palabras, Promesas
TTITLE9=Porque Te Vas
TTITLE10=No Digas Nada
TTITLE11=El Es Distinto A Ti
TTITLE12=San Francisco Bay Blues
TTITLE13=Oí Tu Voz
TTITLE14=Sola
TTITLE15=Seguiré Amando
EXTD=
EXTT0=
EXTT1=
EXTT2=
EXTT3=
EXTT4=
EXTT5=
EXTT6=
EXTT7=
EXTT8=
EXTT9=
EXTT10=
EXTT11=
EXTT12=
EXTT13=
EXTT14=
EXTT15=
PLAYORDER=
